<svg xmlns="http://www.w3.org/2000/svg" fill="none" viewBox="0 0 24 24" id="Zabbix--Streamline-Svg-Logos" height="24" width="24">
  <desc>
    Zabbix Streamline Icon: https://streamlinehq.com
  </desc>
  <path fill="#d40000" d="M23.75 8.9226H0.25v6.154775h23.5V8.9226Z" stroke-width="0.25"></path>
  <path fill="#ffffff" d="M1.257075 9.859625h3.3991v0.447625L1.914515 13.6504H4.726125v0.489575H1.187135v-0.447625L3.9288 10.3492H1.257075v-0.489575Zm5.7631 0.5735 -0.797325 2.1262H7.8175l-0.797325 -2.1262Zm-0.335725 -0.5735h0.65745L8.9925 14.139975h-0.6015l-0.391675 -1.091075H6.041l-0.391675 1.091075h-0.615475l1.6506 -4.28035Zm3.525 2.2381v1.56665h0.9372c0.321725 0 0.54555 -0.069925 0.699425 -0.195825 0.15385 -0.1259 0.2238 -0.321725 0.2238 -0.5875 0 -0.265775 -0.06995 -0.4616 -0.2238 -0.5875 -0.153875 -0.1259 -0.391675 -0.195825 -0.699425 -0.195825h-0.9372Zm0 -1.7625v1.2869h0.867275c0.27975 0 0.503575 -0.05595 0.64345 -0.153875 0.139875 -0.1119 0.209825 -0.265775 0.209825 -0.489575 0 -0.209825 -0.06995 -0.377675 -0.209825 -0.4896 -0.139875 -0.1119 -0.3497 -0.15385 -0.64345 -0.15385h-0.867275Zm-0.5875 -0.4756h1.496725c0.447625 0 0.78335 0.0979 1.035125 0.27975 0.2378 0.18185 0.3637 0.447625 0.3637 0.78335 0 0.265775 -0.05595 0.475575 -0.18185 0.62945 -0.1259 0.153875 -0.30775 0.2518 -0.54555 0.29375 0.29375 0.05595 0.517575 0.18185 0.67145 0.377675 0.15385 0.19585 0.2378 0.43365 0.2378 0.7274 0 0.377675 -0.1259 0.671425 -0.391675 0.88125 -0.265775 0.2098 -0.629475 0.307725 -1.11905 0.307725h-1.566675V9.859625Zm4.6021 2.2381v1.56665h0.9372c0.307725 0 0.545525 -0.069925 0.6994 -0.195825 0.153875 -0.1259 0.2238 -0.321725 0.2238 -0.5875 0 -0.265775 -0.069925 -0.4616 -0.2238 -0.5875 -0.153875 -0.1259 -0.391675 -0.195825 -0.6994 -0.195825h-0.9372Zm0 -1.7625v1.2869h0.86725c0.279775 0 0.503575 -0.05595 0.64345 -0.153875 0.139875 -0.1119 0.209825 -0.265775 0.209825 -0.489575 0 -0.209825 -0.06995 -0.377675 -0.209825 -0.4896 -0.139875 -0.1119 -0.3497 -0.15385 -0.64345 -0.15385h-0.86725Zm-0.5875 -0.4756h1.496725c0.4476 0 0.783325 0.0979 1.0351 0.27975 0.2378 0.18185 0.3637 0.447625 0.3637 0.78335 0 0.265775 -0.05595 0.475575 -0.18185 0.62945 -0.125875 0.153875 -0.307725 0.2518 -0.545525 0.29375 0.29375 0.05595 0.51755 0.18185 0.671425 0.377675 0.153875 0.19585 0.2378 0.43365 0.2378 0.7274 0 0.377675 -0.1259 0.671425 -0.391675 0.88125 -0.265775 0.2098 -0.62945 0.307725 -1.11905 0.307725h-1.56665V9.859625Zm4.0006 0h0.587475v4.28035h-0.587475V9.859625Zm1.69255 0h0.64345l1.021125 1.538675 1.035125 -1.538675h0.615475l-1.34285 2.0003 1.5107 2.28005h-0.64345l-1.188975 -1.790475 -1.189 1.790475h-0.62945l1.5107 -2.266075 -1.34285 -2.014275Z" stroke-width="0.25"></path>
</svg>